<svg id="l_d_154" xmlns="http://www.w3.org/2000/svg" xmlns:xlink="http://www.w3.org/1999/xlink" viewBox="0 0 45 45" width="45" height="45" preserveAspectRatio="xMidYMid meet" style="width: 100%; height: 100%; transform: translate3d(0px, 0px, 0px); content-visibility: visible;"><defs id="l_d_155"><clipPath id="__lottie_element_66"><rect id="l_d_158" width="45" height="45" x="0" y="0"></rect></clipPath><g id="__lottie_element_86"><g id="l_d_195" transform="matrix(1,0,0,1,-23,-19.25)" opacity="1" style="display: block;"><g id="l_d_200" opacity="1" transform="matrix(1,0,0,1,40,44)"><path id="l_d_201" fill="rgb(34,34,34)" fill-opacity="1" d=" M11.930999755859375,0 C11.930999755859375,0 -11.930999755859375,0 -11.930999755859375,0 C-11.930999755859375,0 -14.982999801635742,-21.448999404907227 -14.982999801635742,-21.448999404907227 C-14.982999801635742,-21.448999404907227 15.00100040435791,-21.322999954223633 15.00100040435791,-21.322999954223633 C15.00100040435791,-21.322999954223633 11.930999755859375,0 11.930999755859375,0z"></path></g></g></g><mask id="__lottie_element_86_1" mask-type="alpha"><use id="l_d_210" xlink:href="#__lottie_element_86"></use></mask><g id="__lottie_element_92"><g id="l_d_211" transform="matrix(1,0,0,1,-23,-19.25)" opacity="1" style="display: block;"><g id="l_d_216" opacity="1" transform="matrix(1,0,0,1,40,44)"><path id="l_d_217" fill="rgb(34,34,34)" fill-opacity="1" d=" M11.930999755859375,0 C11.930999755859375,0 -11.930999755859375,0 -11.930999755859375,0 C-11.930999755859375,0 -14.982999801635742,-21.448999404907227 -14.982999801635742,-21.448999404907227 C-14.982999801635742,-21.448999404907227 15.00100040435791,-21.322999954223633 15.00100040435791,-21.322999954223633 C15.00100040435791,-21.322999954223633 11.930999755859375,0 11.930999755859375,0z"></path></g></g></g><mask id="__lottie_element_92_1" mask-type="alpha"><use id="l_d_226" xlink:href="#__lottie_element_92"></use></mask><g id="__lottie_element_98"><g id="l_d_227" transform="matrix(1,0,0,1,-23,-19.25)" opacity="1" style="display: block;"><g id="l_d_232" opacity="1" transform="matrix(1,0,0,1,40,44)"><path id="l_d_233" fill="rgb(34,34,34)" fill-opacity="1" d=" M-14.991999626159668,10.925999641418457 C-14.991999626159668,10.925999641418457 -11.930999755859375,0 -11.930999755859375,0 C-11.930999755859375,0 11.930999755859375,0 11.930999755859375,0 C11.930999755859375,0 14.991999626159668,11.052000045776367 14.991999626159668,11.052000045776367"></path></g></g></g><filter id="__lottie_element_104" filterUnits="objectBoundingBox" x="0%" y="0%" width="100%" height="100%"><feComponentTransfer id="l_d_244" in="SourceGraphic"><feFuncA id="l_d_245" type="table" tableValues="1.0 0.0"></feFuncA></feComponentTransfer></filter><mask id="__lottie_element_98_2" mask-type="alpha"><g id="l_d_242" filter="url(#__lottie_element_104)"><rect id="l_d_246" width="45" height="45" x="0" y="0" fill="#ffffff" opacity="0"></rect><use id="l_d_247" xlink:href="#__lottie_element_98"></use></g></mask><g id="__lottie_element_105"><g id="l_d_248" transform="matrix(1,0,0,1,-23,-19.25)" opacity="1" style="display: block;"><g id="l_d_253" opacity="1" transform="matrix(1,0,0,1,40,44)"><path id="l_d_254" fill="rgb(34,34,34)" fill-opacity="1" d=" M-14.991999626159668,10.925999641418457 C-14.991999626159668,10.925999641418457 -11.930999755859375,0 -11.930999755859375,0 C-11.930999755859375,0 11.930999755859375,0 11.930999755859375,0 C11.930999755859375,0 14.991999626159668,11.052000045776367 14.991999626159668,11.052000045776367"></path></g></g></g><filter id="__lottie_element_111" filterUnits="objectBoundingBox" x="0%" y="0%" width="100%" height="100%"><feComponentTransfer id="l_d_265" in="SourceGraphic"><feFuncA id="l_d_266" type="table" tableValues="1.0 0.0"></feFuncA></feComponentTransfer></filter><mask id="__lottie_element_105_2" mask-type="alpha"><g id="l_d_263" filter="url(#__lottie_element_111)"><rect id="l_d_267" width="45" height="45" x="0" y="0" fill="#ffffff" opacity="0"></rect><use id="l_d_268" xlink:href="#__lottie_element_105"></use></g></mask></defs><g id="l_d_156" clip-path="url(#__lottie_element_66)"><g id="l_d_269" transform="matrix(1,0,0,1,-23,-19.25)" opacity="1" style="display: block;"><g id="l_d_273" opacity="1" transform="matrix(1,0,0,1,40,49)"><path id="l_d_274" stroke-linecap="butt" stroke-linejoin="round" fill-opacity="0" stroke="rgb(34,34,34)" stroke-opacity="1" stroke-width="2" d=" M-12,-5 C-12,-5 12,-5 12,-5 C12,-5 12,5 12,5 C12,5 -12,5 -12,5 C-12,5 -12,-5 -12,-5z"></path></g><g id="l_d_275" opacity="1" transform="matrix(1,0,0,1,40,44)"><path id="l_d_276" stroke-linecap="butt" stroke-linejoin="round" fill-opacity="0" stroke="rgb(34,34,34)" stroke-opacity="1" stroke-width="2" d=" M-15,0 C-15,0 15,0 15,0"></path></g></g><g id="l_d_256" mask="url(#__lottie_element_105_2)" style="display: block;"><g id="l_d_255" transform="matrix(1,0,0,1,-23,-19.25)" opacity="1"><g id="l_d_259" opacity="1" transform="matrix(1,0,0,1,0,0)"><g id="l_d_260" opacity="1" transform="matrix(1,0,0,1,40,41.479000091552734)"><path id="l_d_261" stroke-linecap="butt" stroke-linejoin="miter" fill-opacity="0" stroke-miterlimit="4" stroke="rgb(34,34,34)" stroke-opacity="1" stroke-width="2" d=" M0,3.244999885559082 C1.2369999885559082,3.244999885559082 2.25,2.1760001182556152 2.25,1.0809999704360962 C2.25,-0.10899999737739563 1.5,-1.5509999990463257 0,-3.244999885559082 C-1.5,-1.5509999990463257 -2.25,-0.10899999737739563 -2.25,1.0809999704360962 C-2.25,2.1760001182556152 -1.2369999885559082,3.244999885559082 0,3.244999885559082 C0,3.244999885559082 0,3.244999885559082 0,3.244999885559082z"></path></g></g></g></g><g id="l_d_235" mask="url(#__lottie_element_98_2)" style="display: block;"><g id="l_d_234" transform="matrix(1,0,0,1,-23,-19.25)" opacity="1"><g id="l_d_238" opacity="1" transform="matrix(1,0,0,1,0,0)"><g id="l_d_239" opacity="1" transform="matrix(1,0,0,1,40,36.91899871826172)"><path id="l_d_240" stroke-linecap="round" stroke-linejoin="miter" fill-opacity="0" stroke-miterlimit="4" stroke="rgb(34,34,34)" stroke-opacity="1" stroke-width="2" d=" M0,-8.11400032043457 C3.318000078201294,-6.011000156402588 6,-1.3519999980926514 6,2.0280001163482666 C6,6.085000038146973 3.0380001068115234,8.11400032043457 0,8.11400032043457 C-2.990000009536743,8.11400032043457 -6,6.5920000076293945 -6,2.0280001163482666 C-6,0.33799999952316284 -5.166999816894531,-1.690000057220459 -3.5,-4.057000160217285 C-3.5,-4.057000160217285 -2,-3.0429999828338623 -2,-3.0429999828338623 C-2,-3.0429999828338623 -1.5,-7.544000148773193 0,-8.11400032043457z"></path></g></g></g></g><g id="l_d_219" mask="url(#__lottie_element_92_1)" style="display: block;"><g id="l_d_218" transform="matrix(0,0,0,0,17,25.68499755859375)" opacity="1"><g id="l_d_222" opacity="1" transform="matrix(1,0,0,1,0,0)"><g id="l_d_223" opacity="1" transform="matrix(1,0,0,1,40,41.479000091552734)"><path id="l_d_224" stroke-linecap="butt" stroke-linejoin="miter" fill-opacity="0" stroke-miterlimit="4" stroke="rgb(34,34,34)" stroke-opacity="1" stroke-width="2" d=" M0,3.244999885559082 C1.2369999885559082,3.244999885559082 2.25,2.1760001182556152 2.25,1.0809999704360962 C2.25,-0.10899999737739563 1.5,-1.5509999990463257 0,-3.244999885559082 C-1.5,-1.5509999990463257 -2.25,-0.10899999737739563 -2.25,1.0809999704360962 C-2.25,2.1760001182556152 -1.2369999885559082,3.244999885559082 0,3.244999885559082 C0,3.244999885559082 0,3.244999885559082 0,3.244999885559082z"></path></g></g></g></g><g id="l_d_203" mask="url(#__lottie_element_86_1)" style="display: block;"><g id="l_d_202" transform="matrix(0,0,0,0,16.625,26.027999877929688)" opacity="1"><g id="l_d_206" opacity="1" transform="matrix(1,0,0,1,0,0)"><g id="l_d_207" opacity="1" transform="matrix(1,0,0,1,40,36.91899871826172)"><path id="l_d_208" stroke-linecap="round" stroke-linejoin="miter" fill-opacity="0" stroke-miterlimit="4" stroke="rgb(34,34,34)" stroke-opacity="1" stroke-width="2" d=" M0,-8.11400032043457 C4,-4.732999801635742 6,-1.3519999980926514 6,2.0280001163482666 C6,6.085000038146973 3.0380001068115234,8.11400032043457 0,8.11400032043457 C-2.990000009536743,8.11400032043457 -6,6.5920000076293945 -6,2.0280001163482666 C-6,0.33799999952316284 -5.166999816894531,-1.690000057220459 -3.5,-4.057000160217285 C-3.5,-4.057000160217285 -2,-3.0429999828338623 -2,-3.0429999828338623 C-2,-3.0429999828338623 0,-8.11400032043457 0,-8.11400032043457z"></path></g></g></g></g><g id="l_d_189" style="display: none;"><g id="l_d_193"><path id="l_d_194"></path></g></g><g id="l_d_183" style="display: none;"><g id="l_d_187"><path id="l_d_188"></path></g></g><g id="l_d_177" style="display: none;"><g id="l_d_181"><path id="l_d_182"></path></g></g><g id="l_d_171" style="display: none;"><g id="l_d_175"><path id="l_d_176"></path></g></g><g id="l_d_165" style="display: none;"><g id="l_d_169"><path id="l_d_170"></path></g></g><g id="l_d_159" style="display: none;"><g id="l_d_163"><path id="l_d_164"></path></g></g></g></svg>