<svg id="l_d_804" xmlns="http://www.w3.org/2000/svg" xmlns:xlink="http://www.w3.org/1999/xlink" viewBox="0 0 45 45" width="45" height="45" preserveAspectRatio="xMidYMid meet" style="width: 100%; height: 100%; transform: translate3d(0px, 0px, 0px); content-visibility: visible;"><defs id="l_d_805"><clipPath id="__lottie_element_346"><rect id="l_d_808" width="45" height="45" x="0" y="0"></rect></clipPath><clipPath id="__lottie_element_348"><path id="l_d_811" fill="#ffffff" clip-rule="nonzero"></path><path id="l_d_812" fill="#ffffff" clip-rule="nonzero"></path></clipPath><clipPath id="__lottie_element_351"><path id="l_d_819" fill="#ffffff" clip-rule="nonzero"></path><path id="l_d_820" fill="#ffffff" clip-rule="nonzero"></path></clipPath><clipPath id="__lottie_element_354"><path id="l_d_827" fill="#ffffff" clip-rule="nonzero"></path><path id="l_d_828" fill="#ffffff" clip-rule="nonzero"></path></clipPath><clipPath id="__lottie_element_357"><path id="l_d_835" fill="#ffffff" clip-rule="nonzero"></path><path id="l_d_836" fill="#ffffff" clip-rule="nonzero"></path></clipPath><clipPath id="__lottie_element_360"><path id="l_d_843" fill="#ffffff" clip-rule="nonzero"></path><path id="l_d_844" fill="#ffffff" clip-rule="nonzero"></path></clipPath><clipPath id="__lottie_element_363"><path id="l_d_851" fill="#ffffff" clip-rule="nonzero"></path><path id="l_d_852" fill="#ffffff" clip-rule="nonzero"></path></clipPath><clipPath id="__lottie_element_366"><path id="l_d_859" fill="#ffffff" clip-rule="nonzero"></path><path id="l_d_860" fill="#ffffff" clip-rule="nonzero"></path></clipPath></defs><g id="l_d_806" clip-path="url(#__lottie_element_346)"><g id="l_d_883" transform="matrix(1.0000008344650269,0,0,1.0000008344650269,-24.00003433227539,-18.374406814575195)" opacity="1" style="display: block;"><g id="l_d_887" opacity="1" transform="matrix(1,0,0,1,51,50)"><path id="l_d_888" stroke-linecap="butt" stroke-linejoin="miter" fill-opacity="0" stroke-miterlimit="4" stroke="rgb(34,34,34)" stroke-opacity="1" stroke-width="2" d=" M-2,-2 C-2,-2 2,-2 2,-2 C2,-2 2,1 2,1 C2,1.5520000457763672 1.5520000457763672,2 1,2 C1,2 -1,2 -1,2 C-1.5520000457763672,2 -2,1.5520000457763672 -2,1 C-2,1 -2,-2 -2,-2 C-2,-2 -2,-2 -2,-2z"></path></g><g id="l_d_889" opacity="1" transform="matrix(1,0,0,1,29,50)"><path id="l_d_890" stroke-linecap="butt" stroke-linejoin="miter" fill-opacity="0" stroke-miterlimit="4" stroke="rgb(34,34,34)" stroke-opacity="1" stroke-width="2" d=" M-2,-2 C-2,-2 2,-2 2,-2 C2,-2 2,1 2,1 C2,1.5520000457763672 1.5520000457763672,2 1,2 C1,2 -1,2 -1,2 C-1.5520000457763672,2 -2,1.5520000457763672 -2,1 C-2,1 -2,-2 -2,-2 C-2,-2 -2,-2 -2,-2z"></path></g></g><g id="l_d_865" transform="matrix(1.0000008344650269,0,0,1.0000008344650269,-24.00003433227539,-18.374406814575195)" opacity="1" style="display: block;"><g id="l_d_869" opacity="1" transform="matrix(1,0,0,1,40,43)"><path id="l_d_870" stroke-linecap="butt" stroke-linejoin="miter" fill-opacity="0" stroke-miterlimit="4" stroke="rgb(34,34,34)" stroke-opacity="1" stroke-width="2" d=" M-9,-5 C-9,-5 9,-5 9,-5 C11.208999633789062,-5 13,-3.2090001106262207 13,-1 C13,-1 13,4 13,4 C13,4.552000045776367 12.552000045776367,5 12,5 C12,5 -12,5 -12,5 C-12.552000045776367,5 -13,4.552000045776367 -13,4 C-13,4 -13,-1 -13,-1 C-13,-3.2090001106262207 -11.208999633789062,-5 -9,-5z"></path></g><g id="l_d_871" opacity="1" transform="matrix(1,0,0,1,49,43)"><path id="l_d_872" fill="rgb(34,34,34)" fill-opacity="1" d=" M0,-1 C0.5519999861717224,-1 1,-0.5519999861717224 1,0 C1,0.5519999861717224 0.5519999861717224,1 0,1 C-0.5519999861717224,1 -1,0.5519999861717224 -1,0 C-1,-0.5519999861717224 -0.5519999861717224,-1 0,-1z"></path></g><g id="l_d_873" opacity="1" transform="matrix(1,0,0,1,31,43)"><path id="l_d_874" fill="rgb(34,34,34)" fill-opacity="1" d=" M0,-1 C0.5519999861717224,-1 1,-0.5519999861717224 1,0 C1,0.5519999861717224 0.5519999861717224,1 0,1 C-0.5519999861717224,1 -1,0.5519999861717224 -1,0 C-1,-0.5519999861717224 -0.5519999861717224,-1 0,-1z"></path></g><g id="l_d_875" opacity="1" transform="matrix(1,0,0,1,40,34)"><path id="l_d_876" stroke-linecap="butt" stroke-linejoin="miter" fill-opacity="0" stroke-miterlimit="4" stroke="rgb(34,34,34)" stroke-opacity="1" stroke-width="2" d=" M-7.307000160217285,-4 C-7.307000160217285,-4 7.307000160217285,-4 7.307000160217285,-4 C7.723999977111816,-4 8.097000122070312,-3.740999937057495 8.243000030517578,-3.3510000705718994 C8.243000030517578,-3.3510000705718994 11,4 11,4 C11,4 11,4 11,4 C11,4 -11,4 -11,4 C-11,4 -8.243000030517578,-3.3510000705718994 -8.243000030517578,-3.3510000705718994 C-8.097000122070312,-3.740999937057495 -7.723999977111816,-4 -7.307000160217285,-4z"></path></g><g id="l_d_877" opacity="1" transform="matrix(1,0,0,1,27.5,36)"><path id="l_d_878" fill="rgb(34,34,34)" fill-opacity="1" d=" M-1.5,-1 C-1.5,-1 1.5,-1 1.5,-1 C1.5,-1 1.5,1 1.5,1 C1.5,1 -1.5,1 -1.5,1 C-1.5,1 -1.5,-1 -1.5,-1z"></path></g><g id="l_d_879" opacity="1" transform="matrix(1,0,0,1,52.5,36)"><path id="l_d_880" fill="rgb(34,34,34)" fill-opacity="1" d=" M-1.5,-1 C-1.5,-1 1.5,-1 1.5,-1 C1.5,-1 1.5,1 1.5,1 C1.5,1 -1.5,1 -1.5,1 C-1.5,1 -1.5,-1 -1.5,-1z"></path></g><g id="l_d_881" opacity="1" transform="matrix(1,0,0,1,40,43)"><path id="l_d_882" stroke-linecap="butt" stroke-linejoin="miter" fill-opacity="0" stroke-miterlimit="4" stroke="rgb(34,34,34)" stroke-opacity="1" stroke-width="2" d=" M-6,0 C-6,0 6,0 6,0"></path></g></g><g id="l_d_857" clip-path="url(#__lottie_element_366)" style="display: none;"><g id="l_d_863"><path id="l_d_864"></path></g></g><g id="l_d_849" clip-path="url(#__lottie_element_363)" style="display: none;"><g id="l_d_855"><path id="l_d_856"></path></g></g><g id="l_d_841" clip-path="url(#__lottie_element_360)" style="display: none;"><g id="l_d_847"><path id="l_d_848"></path></g></g><g id="l_d_833" clip-path="url(#__lottie_element_357)" style="display: none;"><g id="l_d_839"><path id="l_d_840"></path></g></g><g id="l_d_825" clip-path="url(#__lottie_element_354)" style="display: none;"><g id="l_d_831"><path id="l_d_832"></path></g></g><g id="l_d_817" clip-path="url(#__lottie_element_351)" style="display: none;"><g id="l_d_823"><path id="l_d_824"></path></g></g><g id="l_d_809" clip-path="url(#__lottie_element_348)" style="display: none;"><g id="l_d_815"><path id="l_d_816"></path></g></g></g></svg>