<svg id="l_d_684" xmlns="http://www.w3.org/2000/svg" xmlns:xlink="http://www.w3.org/1999/xlink" viewBox="0 0 45 45" width="45" height="45" preserveAspectRatio="xMidYMid meet" style="width: 100%; height: 100%; transform: translate3d(0px, 0px, 0px); content-visibility: visible;"><defs id="l_d_685"><clipPath id="__lottie_element_310"><rect id="l_d_688" width="45" height="45" x="0" y="0"></rect></clipPath><g id="__lottie_element_321"><g id="l_d_722" style="display: none;"><g id="l_d_727"><path id="l_d_728"></path></g></g></g><mask id="__lottie_element_321_1" mask-type="alpha"><use id="l_d_736" xlink:href="#__lottie_element_321"></use></mask><g id="__lottie_element_327"><g id="l_d_737" style="display: none;"><g id="l_d_742"><path id="l_d_743"></path></g></g></g><mask id="__lottie_element_327_1" mask-type="alpha"><use id="l_d_762" xlink:href="#__lottie_element_327"></use></mask></defs><g id="l_d_686" clip-path="url(#__lottie_element_310)"><g id="l_d_763" transform="matrix(1,0,0,1,-23.5,-17.5)" opacity="1" style="display: block;"><g id="l_d_767" opacity="1" transform="matrix(1,0,0,1,40,40)"></g><g id="l_d_768" opacity="1" transform="matrix(1,0,0,1,40,40)"><path id="l_d_769" stroke-linecap="butt" stroke-linejoin="miter" fill-opacity="0" stroke-miterlimit="4" stroke="rgb(34,34,34)" stroke-opacity="1" stroke-width="2" d=" M-12,-13 C-12,-13 12,-13 12,-13 C12.552000045776367,-13 13,-12.552000045776367 13,-12 C13,-12 13,12 13,12 C13,12.552000045776367 12.552000045776367,13 12,13 C12,13 -12,13 -12,13 C-12.552000045776367,13 -13,12.552000045776367 -13,12 C-13,12 -13,-12 -13,-12 C-13,-12.552000045776367 -12.552000045776367,-13 -12,-13z"></path></g><g id="l_d_770" opacity="1" transform="matrix(1,0,0,1,40,35)"><path id="l_d_771" stroke-linecap="butt" stroke-linejoin="miter" fill-opacity="0" stroke-miterlimit="4" stroke="rgb(34,34,34)" stroke-opacity="1" stroke-width="2" d=" M13,0 C13,0 -13,0 -13,0"></path></g><g id="l_d_772" opacity="1" transform="matrix(1,0,0,1,49,31)"><path id="l_d_773" fill="rgb(0,0,0)" fill-opacity="1" d=" M0,-1 C0.5519999861717224,-1 1,-0.5519999861717224 1,0 C1,0.5519999861717224 0.5519999861717224,1 0,1 C-0.5519999861717224,1 -1,0.5519999861717224 -1,0 C-1,-0.5519999861717224 -0.5519999861717224,-1 0,-1z"></path></g><g id="l_d_774" opacity="1" transform="matrix(1,0,0,1,43,31)"><path id="l_d_775" fill="rgb(0,0,0)" fill-opacity="1" d=" M0,-1 C0.5519999861717224,-1 1,-0.5519999861717224 1,0 C1,0.5519999861717224 0.5519999861717224,1 0,1 C-0.5519999861717224,1 -1,0.5519999861717224 -1,0 C-1,-0.5519999861717224 -0.5519999861717224,-1 0,-1z"></path></g><g id="l_d_776" opacity="1" transform="matrix(1,0,0,1,37,31)"><path id="l_d_777" fill="rgb(0,0,0)" fill-opacity="1" d=" M0,-1 C0.5519999861717224,-1 1,-0.5519999861717224 1,0 C1,0.5519999861717224 0.5519999861717224,1 0,1 C-0.5519999861717224,1 -1,0.5519999861717224 -1,0 C-1,-0.5519999861717224 -0.5519999861717224,-1 0,-1z"></path></g><g id="l_d_778" opacity="1" transform="matrix(1,0,0,1,31,31)"><path id="l_d_779" fill="rgb(0,0,0)" fill-opacity="1" d=" M0,-1 C0.5519999861717224,-1 1,-0.5519999861717224 1,0 C1,0.5519999861717224 0.5519999861717224,1 0,1 C-0.5519999861717224,1 -1,0.5519999861717224 -1,0 C-1,-0.5519999861717224 -0.5519999861717224,-1 0,-1z"></path></g></g><g id="l_d_745" mask="url(#__lottie_element_327_1)" style="display: none;"><g id="l_d_744"><g id="l_d_748"></g><g id="l_d_749"><path id="l_d_750" stroke-linecap="butt" stroke-linejoin="miter" fill-opacity="0" stroke-miterlimit="4"></path></g><g id="l_d_751"><path id="l_d_752" stroke-linecap="butt" stroke-linejoin="miter" fill-opacity="0" stroke-miterlimit="4"></path></g><g id="l_d_753"><path id="l_d_754"></path></g><g id="l_d_755"><path id="l_d_756"></path></g><g id="l_d_757"><path id="l_d_758"></path></g><g id="l_d_759"><path id="l_d_760"></path></g></g></g><g id="l_d_730" mask="url(#__lottie_element_321_1)" style="display: none;"><g id="l_d_729"><g id="l_d_733"><path id="l_d_734" stroke-linecap="butt" stroke-linejoin="round" fill-opacity="0"></path></g></g></g><g id="l_d_705" style="display: none;"><g id="l_d_709"></g><g id="l_d_710"><path id="l_d_711" stroke-linecap="butt" stroke-linejoin="miter" fill-opacity="0" stroke-miterlimit="4"></path></g><g id="l_d_712"><path id="l_d_713" stroke-linecap="butt" stroke-linejoin="miter" fill-opacity="0" stroke-miterlimit="4"></path></g><g id="l_d_714"><path id="l_d_715"></path></g><g id="l_d_716"><path id="l_d_717"></path></g><g id="l_d_718"><path id="l_d_719"></path></g><g id="l_d_720"><path id="l_d_721"></path></g></g><g id="l_d_697" style="display: none;"><g id="l_d_701"><path id="l_d_702" stroke-linecap="butt" stroke-linejoin="miter" fill-opacity="0" stroke-miterlimit="4"></path></g><g id="l_d_703"><path id="l_d_704" stroke-linecap="butt" stroke-linejoin="miter" fill-opacity="0" stroke-miterlimit="4"></path></g></g><g id="l_d_689" transform="matrix(1,0,0,1,-23.5,-17.5)" opacity="1" style="display: block;"><g id="l_d_693" opacity="1" transform="matrix(1,0,0,1,40,44)"><path id="l_d_694" stroke-linecap="butt" stroke-linejoin="miter" fill-opacity="0" stroke-miterlimit="4" stroke="rgb(34,34,34)" stroke-opacity="1" stroke-width="2" d=" M-9,-5 C-9,-5 9,-5 9,-5 C9,-5 9,5 9,5 C9,5 -9,5 -9,5 C-9,5 -9,-5 -9,-5z"></path></g><g id="l_d_695" opacity="1" transform="matrix(1,0,0,1,40,35)"><path id="l_d_696" stroke-linecap="butt" stroke-linejoin="miter" fill-opacity="0" stroke-miterlimit="4" stroke="rgb(34,34,34)" stroke-opacity="1" stroke-width="2" d=" M13,0 C13,0 -13,0 -13,0"></path></g></g></g></svg>